<?xml version="1.0" encoding="UTF-8"?>
<svg version="1.1" xmlns="http://www.w3.org/2000/svg" width="170" height="41">
<path d="M0 0 C56.1 0 112.2 0 170 0 C170 13.53 170 27.06 170 41 C113.9 41 57.8 41 0 41 C0 27.47 0 13.94 0 0 Z " fill="#FBFDFB" transform="translate(0,0)"/>
<path d="M0 0 C11.88 0 23.76 0 36 0 C36 0.66 36 1.32 36 2 C36.639375 2.144375 37.27875 2.28875 37.9375 2.4375 C40 3 40 3 41 4 C40.90982004 6.19050021 40.75333792 8.378466 40.5625 10.5625 C40.46066406 11.76003906 40.35882813 12.95757812 40.25390625 14.19140625 C40.17011719 15.11824219 40.08632813 16.04507812 40 17 C40.99 17.33 41.98 17.66 43 18 C41.68 18.33 40.36 18.66 39 19 C39 14.05 39 9.1 39 4 C38.01 4.33 37.02 4.66 36 5 C36 13.25 36 21.5 36 30 C36.99 30.33 37.98 30.66 39 31 C39 28.36 39 25.72 39 23 C40.66611905 22.957279 42.33382885 22.95936168 44 23 C45 24 45 24 45.09765625 25.84765625 C45.06510417 27.8984375 45.03255208 29.94921875 45 32 C46.98 32 48.96 32 51 32 C51 31.34 51 30.68 51 30 C51.804375 30.309375 52.60875 30.61875 53.4375 30.9375 C57.62249087 32.18565517 61.66306101 32.6337696 66 33 C66 32.34 66 31.68 66 31 C66.78375 30.690625 67.5675 30.38125 68.375 30.0625 C70.92330128 29.07124962 70.92330128 29.07124962 73 28 C73 31.96 73 35.92 73 40 C74.65 40 76.3 40 78 40 C77.98428955 39.37955811 77.9685791 38.75911621 77.95239258 38.11987305 C77.89003786 35.30917472 77.85100852 32.49862188 77.8125 29.6875 C77.78736328 28.71103516 77.76222656 27.73457031 77.73632812 26.72851562 C77.72666016 25.79072266 77.71699219 24.85292969 77.70703125 23.88671875 C77.6913208 23.02264404 77.67561035 22.15856934 77.65942383 21.26831055 C78 19 78 19 79.3269043 17.21411133 C81.88040342 15.36111977 83.94230432 15.67471323 87 16 C89.32528287 18.32528287 89.29511025 18.84665898 89.3125 22 C89.32925781 22.70125 89.34601563 23.4025 89.36328125 24.125 C89.24339844 24.74375 89.12351562 25.3625 89 26 C85.1496895 28.56687367 83.41430237 27.83288724 79 27 C79 28.32 79 29.64 79 31 C81.1060986 30.74462428 83.20988754 30.47014626 85.3125 30.1875 C86.48425781 30.03667969 87.65601562 29.88585937 88.86328125 29.73046875 C91.99420274 29.00135005 93.09645193 28.50828536 95 26 C95 26.66 95 27.32 95 28 C95.598125 28.12375 96.19625 28.2475 96.8125 28.375 C99 29 99 29 102 31 C105.692925 31.27871132 108.35558761 31.25776496 111.8125 29.875 C115.20242045 28.9444336 116.47728549 29.16031267 119.8125 29.9375 C124.66421065 31.03351897 129.23556378 31.81948942 134 30 C136.24391503 27.80851289 137.43636004 25.77419994 139 23 C141.12508244 26.18762365 141.5020163 28.26512223 142 32 C143.65 32 145.3 32 147 32 C147.33 30.68 147.66 29.36 148 28 C148.85271484 28.34224609 148.85271484 28.34224609 149.72265625 28.69140625 C155.02153974 30.66411246 158.4805391 31.29178872 164 30 C164.33 28.68 164.66 27.36 165 26 C164.01 26.66 163.02 27.32 162 28 C159.5 28.375 159.5 28.375 157 28 C155.125 26.4375 155.125 26.4375 154 24 C154.43636364 17.56363636 154.43636364 17.56363636 156 16 C161.8410596 15.62913907 161.8410596 15.62913907 164 16 C166.18994248 19.28491373 166.35277339 20.83095639 166.625 24.6875 C166.73714844 26.17830078 166.73714844 26.17830078 166.8515625 27.69921875 C166.90054688 28.45847656 166.94953125 29.21773437 167 30 C167.99 30.33 168.98 30.66 170 31 C170 34.3 170 37.6 170 41 C113.9 41 57.8 41 0 41 C0 27.47 0 13.94 0 0 Z " fill="#FCFEFC" transform="translate(0,0)"/>
<path d="M0 0 C2.32528287 2.32528287 2.29511025 2.84665898 2.3125 6 C2.32925781 6.70125 2.34601563 7.4025 2.36328125 8.125 C2.18345703 9.053125 2.18345703 9.053125 2 10 C-1.8503105 12.56687367 -3.58569763 11.83288724 -8 11 C-8 12.32 -8 13.64 -8 15 C-5.8939014 14.74462428 -3.79011246 14.47014626 -1.6875 14.1875 C-0.51574219 14.03667969 0.65601562 13.88585938 1.86328125 13.73046875 C4.99420274 13.00135005 6.09645193 12.50828536 8 10 C8 10.66 8 11.32 8 12 C8.598125 12.12375 9.19625 12.2475 9.8125 12.375 C12 13 12 13 15 15 C18.692925 15.27871132 21.35558761 15.25776496 24.8125 13.875 C28.20242045 12.9444336 29.47728549 13.16031267 32.8125 13.9375 C37.66421065 15.03351897 42.23556378 15.81948942 47 14 C49.24391503 11.80851289 50.43636004 9.77419994 52 7 C54.12508244 10.18762365 54.5020163 12.26512223 55 16 C56.65 16 58.3 16 60 16 C60.33 14.68 60.66 13.36 61 12 C61.56847656 12.22816406 62.13695312 12.45632812 62.72265625 12.69140625 C68.02153974 14.66411246 71.4805391 15.29178872 77 14 C77.33 12.68 77.66 11.36 78 10 C77.01 10.66 76.02 11.32 75 12 C72.5 12.375 72.5 12.375 70 12 C68.125 10.4375 68.125 10.4375 67 8 C67.43636364 1.56363636 67.43636364 1.56363636 69 0 C74.8410596 -0.37086093 74.8410596 -0.37086093 77 0 C79.18994248 3.28491373 79.35277339 4.83095639 79.625 8.6875 C79.73714844 10.17830078 79.73714844 10.17830078 79.8515625 11.69921875 C79.90054688 12.45847656 79.94953125 13.21773437 80 14 C80.99 14.33 81.98 14.66 83 15 C83 18.3 83 21.6 83 25 C51.32 25 19.64 25 -13 25 C-11.68 24.67 -10.36 24.34 -9 24 C-9.01571045 23.37955811 -9.0314209 22.75911621 -9.04760742 22.11987305 C-9.10996214 19.30917472 -9.14899148 16.49862188 -9.1875 13.6875 C-9.22520508 12.22280273 -9.22520508 12.22280273 -9.26367188 10.72851562 C-9.27333984 9.79072266 -9.28300781 8.85292969 -9.29296875 7.88671875 C-9.3086792 7.02264404 -9.32438965 6.15856934 -9.34057617 5.26831055 C-9 3 -9 3 -7.6730957 1.21411133 C-5.11959658 -0.63888023 -3.05769568 -0.32528677 0 0 Z " fill="#FCFEFC" transform="translate(87,16)"/>
<path d="M0 0 C11.88 0 23.76 0 36 0 C36 10.23 36 20.46 36 31 C34.68 30.67 33.36 30.34 32 30 C31.93941406 29.22914062 31.87882812 28.45828125 31.81640625 27.6640625 C31.69072266 26.15972656 31.69072266 26.15972656 31.5625 24.625 C31.48128906 23.62726562 31.40007812 22.62953125 31.31640625 21.6015625 C31.15034374 19.02072387 31.15034374 19.02072387 30 17 C27.36 17 24.72 17 22 17 C20.80011955 22.28199593 20.80011955 22.28199593 23 27 C26.10494126 27.31845551 28.01726077 26.99424641 31 26 C30.67 27.65 30.34 29.3 30 31 C23.86090397 32.43680971 19.79622721 31.32637691 14 29 C13.67 29.99 13.34 30.98 13 32 C11.35 32 9.7 32 8 32 C8.33 31.34 8.66 30.68 9 30 C9.99 30.33 10.98 30.66 12 31 C12 24.73 12 18.46 12 12 C10.35 12 8.7 12 7 12 C7 12.99 7 13.98 7 15 C6.01 15.33 5.02 15.66 4 16 C4 13.36 4 10.72 4 8 C6.64 8.66 9.28 9.32 12 10 C11.67 9.01 11.34 8.02 11 7 C8.69 7 6.38 7 4 7 C4 6.01 4 5.02 4 4 C3.01 3.67 2.02 3.34 1 3 C0.67 2.01 0.34 1.02 0 0 Z " fill="#F9FDF9" transform="translate(134,0)"/>
<path d="M0 0 C0.99 0 1.98 0 3 0 C3 1.32 3 2.64 3 4 C5.31 4 7.62 4 10 4 C10 3.34 10 2.68 10 2 C23.96855577 2.21048509 23.96855577 2.21048509 27.8125 5.4375 C30.85774009 9.00478125 31.39385822 11.21949477 31.359375 15.9609375 C30.7567698 19.38006698 28.63213933 20.93189052 26 23 C21.08601882 25.45699059 15.91269392 23.57206205 11 22 C11 22.66 11 23.32 11 24 C3.76794658 24.48213689 3.76794658 24.48213689 0.75390625 22.58984375 C-1.91883994 18.64322744 -1.46783142 14.96208726 -1.3125 10.3125 C-1.30283203 9.43271484 -1.29316406 8.55292969 -1.28320312 7.64648438 C-1.16832442 1.16832442 -1.16832442 1.16832442 0 0 Z " fill="#59B35E" transform="translate(1,8)"/>
<path d="M0 0 C1.32 0 2.64 0 4 0 C4.33 0.66 4.66 1.32 5 2 C6.98 2 8.96 2 11 2 C11.33 3.32 11.66 4.64 12 6 C8.28400809 6.20086443 7.22791555 6.1519437 4 4 C4.33 6.31 4.66 8.62 5 11 C5.66 11 6.32 11 7 11 C7 10.01 7 9.02 7 8 C8.65 8 10.3 8 12 8 C12 14.27 12 20.54 12 27 C8 26 8 26 6.25 23.4375 C5.8375 22.633125 5.425 21.82875 5 21 C4.360625 21.969375 3.72125 22.93875 3.0625 23.9375 C0.76031663 26.70536719 -0.93994332 27.55137333 -4.5 28.0625 C-9.62135076 28.30070236 -12.08267842 26.6616787 -15.875 23.375 C-17.68931589 19.54477756 -17.18976791 16.00261427 -16 12 C-13.875 9.4375 -13.875 9.4375 -11 8 C-5.01449275 7.49275362 -5.01449275 7.49275362 -2 9 C-2.33 10.32 -2.66 11.64 -3 13 C-5.64 13 -8.28 13 -11 13 C-12.19988045 18.28199593 -12.19988045 18.28199593 -10 23 C-6.91634129 23.2502157 -6.91634129 23.2502157 -4 23 C-2.38441178 20.13444179 -1.73418754 17.98747846 -1.62109375 14.70703125 C-1.58693359 13.91232422 -1.55277344 13.11761719 -1.51757812 12.29882812 C-1.49115234 11.47833984 -1.46472656 10.65785156 -1.4375 9.8125 C-1.12108119 1.12108119 -1.12108119 1.12108119 0 0 Z " fill="#5DB263" transform="translate(134,4)"/>
<path d="M0 0 C4.04212164 2.47018545 5.67811019 3.93965709 7.0625 8.5 C6.99187106 12.45522051 6.51464223 13.98242933 4 17 C0.96510436 19.5290797 -0.51887435 20 -4.5 20 C-8.81135075 18.7681855 -10.45474088 17.70219508 -13 14 C-13.76035188 10.82034669 -13.80347713 8.17373465 -13 5 C-9.12550287 0.36950343 -5.97119689 -1.06628516 0 0 Z " fill="#5CB361" transform="translate(65,12)"/>
<path d="M0 0 C0.99 0 1.98 0 3 0 C3 1.32 3 2.64 3 4 C5.31 4 7.62 4 10 4 C10 3.34 10 2.68 10 2 C16.93 2.495 16.93 2.495 24 3 C24 3.33 24 3.66 24 4 C23.38511719 4.08636719 22.77023438 4.17273438 22.13671875 4.26171875 C16.98575967 5.11437247 16.98575967 5.11437247 12.875 8.125 C11.63362157 12.20381486 12.12270163 14.81596161 13 19 C13.66 19.99 14.32 20.98 15 22 C13.68 22 12.36 22 11 22 C11 22.66 11 23.32 11 24 C3.76794658 24.48213689 3.76794658 24.48213689 0.75390625 22.58984375 C-1.91883994 18.64322744 -1.46783142 14.96208726 -1.3125 10.3125 C-1.30283203 9.43271484 -1.29316406 8.55292969 -1.28320312 7.64648438 C-1.16832442 1.16832442 -1.16832442 1.16832442 0 0 Z " fill="#EFFCEF" transform="translate(1,8)"/>
<path d="M0 0 C2.72923398 1.37342097 3.88464943 2.62667985 6 5 C6.33 6.98 6.66 8.96 7 11 C1.72 11 -3.56 11 -9 11 C-8.67 11.99 -8.34 12.98 -8 14 C-3.76353233 15.0089034 -3.76353233 15.0089034 0.375 14.0625 C0.91125 13.711875 1.4475 13.36125 2 13 C2.99 13.99 3.98 14.98 5 16 C2.17912296 18.73539592 0.48445522 19.92072551 -3.4375 20.5625 C-8.13647787 19.82055613 -9.66711107 18.33288893 -13 15 C-14.3899408 12.2201184 -14.18488204 10.0813674 -14 7 C-11.75800795 0.46085653 -6.55437097 -1.33351885 0 0 Z " fill="#63B569" transform="translate(109,12)"/>
<path d="M0 0 C2.79348323 1.2415481 4.45140815 2.32672818 6.375 4.6875 C7.34611878 8.28063948 6.97285787 11.43041622 6 15 C4.5625 17.5 4.5625 17.5 2 19 C-1.36082802 19.31656151 -4.63573652 19.23113261 -8 19 C-8 17.68 -8 16.36 -8 15 C-6.88625 15.020625 -5.7725 15.04125 -4.625 15.0625 C-1.16784079 15.26380718 -1.16784079 15.26380718 1 14 C1.020625 12.700625 1.04125 11.40125 1.0625 10.0625 C1.07410156 9.33160156 1.08570312 8.60070312 1.09765625 7.84765625 C1.20561184 5.98267859 1.20561184 5.98267859 0 5 C-2.64 5 -5.28 5 -8 5 C-8.33 12.59 -8.66 20.18 -9 28 C-10.32 27.34 -11.64 26.68 -13 26 C-13.11667875 22.77113991 -13.18740546 19.54282555 -13.25 16.3125 C-13.28351563 15.40048828 -13.31703125 14.48847656 -13.3515625 13.54882812 C-13.41507561 9.18230205 -13.43722486 6.71274879 -11.109375 2.91796875 C-7.44930601 -0.40998287 -4.8977367 -0.33204995 0 0 Z " fill="#60B465" transform="translate(87,12)"/>
<path d="M0 0 C2.87029869 1.79393668 4.49131638 2.98263276 6 6 C6.07092842 8.2072923 6.08415025 10.41667452 6.0625 12.625 C6.05347656 13.81351563 6.04445312 15.00203125 6.03515625 16.2265625 C6.02355469 17.14179688 6.01195312 18.05703125 6 19 C4.68 18.67 3.36 18.34 2 18 C1.93941406 17.22914062 1.87882813 16.45828125 1.81640625 15.6640625 C1.73261719 14.66117188 1.64882812 13.65828125 1.5625 12.625 C1.48128906 11.62726562 1.40007812 10.62953125 1.31640625 9.6015625 C1.15034374 7.02072387 1.15034374 7.02072387 0 5 C-2.64 5 -5.28 5 -8 5 C-9.19988045 10.28199593 -9.19988045 10.28199593 -7 15 C-3.89505874 15.31845551 -1.98273923 14.99424641 1 14 C0.67 15.65 0.34 17.3 0 19 C-6.20081967 20.33743169 -6.20081967 20.33743169 -9.8125 18.8125 C-13.52174954 15.73912181 -13.90189337 13.88295965 -14.4375 9.0625 C-14.32722678 5.78493488 -13.94301623 4.91176707 -12.0625 2 C-7.96602574 -0.67524849 -4.76875356 -0.95893414 0 0 Z " fill="#54B35B" transform="translate(164,12)"/>
<path d="M0 0 C0.99 0 1.98 0 3 0 C3 4.95 3 9.9 3 15 C7.08089378 13.42180327 7.08089378 13.42180327 8.5 10.375 C8.995 9.59125 9.49 8.8075 10 8 C11.32 8 12.64 8 14 8 C13.505 9.3921875 13.505 9.3921875 13 10.8125 C11.85032996 13.92029291 11.85032996 13.92029291 12 17 C12.33 17.33 12.66 17.66 13 18 C13.07179964 19.51928038 13.08392007 21.04167482 13.0625 22.5625 C13.05347656 23.38878906 13.04445313 24.21507813 13.03515625 25.06640625 C13.02355469 25.70449219 13.01195312 26.34257812 13 27 C11.046875 26.1640625 11.046875 26.1640625 9 25 C8.25 22.375 8.25 22.375 8 20 C6.35 19.67 4.7 19.34 3 19 C3 21.64 3 24.28 3 27 C1.68 26.67 0.36 26.34 -1 26 C-1.02886751 21.85418113 -1.04675327 17.70838784 -1.0625 13.5625 C-1.07087891 12.37849609 -1.07925781 11.19449219 -1.08789062 9.97460938 C-1.09111328 8.84990234 -1.09433594 7.72519531 -1.09765625 6.56640625 C-1.10289307 5.52427979 -1.10812988 4.48215332 -1.11352539 3.40844727 C-1 1 -1 1 0 0 Z " fill="#53AB59" transform="translate(36,4)"/>
<path d="M0 0 C0.66 0.66 1.32 1.32 2 2 C5.08347826 2.16681109 5.08347826 2.16681109 8 2 C8.33 3.32 8.66 4.64 9 6 C5.28400809 6.20086443 4.22791555 6.1519437 1 4 C1.33 6.31 1.66 8.62 2 11 C2.66 11 3.32 11 4 11 C4 10.01 4 9.02 4 8 C5.65 8 7.3 8 9 8 C9 14.27 9 20.54 9 27 C5 26 5 26 3.25 23.4375 C2.8375 22.633125 2.425 21.82875 2 21 C0.35 22.98 -1.3 24.96 -3 27 C-3.66 26.67 -4.32 26.34 -5 26 C-4.525625 25.566875 -4.05125 25.13375 -3.5625 24.6875 C-0.94783518 21.863662 -0.8476548 19.01168615 -0.68359375 15.33203125 C-0.64169922 14.43935547 -0.59980469 13.54667969 -0.55664062 12.62695312 C-0.51732422 11.69818359 -0.47800781 10.76941406 -0.4375 9.8125 C-0.39431641 8.87212891 -0.35113281 7.93175781 -0.30664062 6.96289062 C-0.20061335 4.64207146 -0.09854971 2.32114675 0 0 Z " fill="#DDF4DE" transform="translate(137,4)"/>
<path d="M0 0 C0.66 0.33 1.32 0.66 2 1 C1.91275184 3.89724063 1.80584073 6.79150135 1.6875 9.6875 C1.65366211 10.91243164 1.65366211 10.91243164 1.61914062 12.16210938 C1.41150558 16.8244599 1.12981665 20.28287809 -2 24 C-5 24.5625 -5 24.5625 -8 24 C-9.9375 22.4375 -9.9375 22.4375 -11 20 C-10.56363636 13.56363636 -10.56363636 13.56363636 -9 12 C-6.32941149 11.85884839 -3.67567762 11.95752893 -1 12 C-0.67 11.01 -0.34 10.02 0 9 C-1.41623216 8.94552953 -2.83308191 8.90699492 -4.25 8.875 C-5.43335937 8.84019531 -5.43335937 8.84019531 -6.640625 8.8046875 C-9.20731941 9.0171622 -10.7916067 9.71345895 -13 11 C-13 10.01 -13 9.02 -13 8 C-7.555 7.01 -7.555 7.01 -2 6 C-1.67 4.68 -1.34 3.36 -1 2 C-0.67 1.34 -0.34 0.68 0 0 Z " fill="#EFFBED" transform="translate(132,4)"/>
<path d="M0 0 C0.99 0 1.98 0 3 0 C3 1.32 3 2.64 3 4 C5.31 4 7.62 4 10 4 C10 5.32 10 6.64 10 8 C7.69 8 5.38 8 3 8 C3.33 11.63 3.66 15.26 4 19 C5.98 19.33 7.96 19.66 10 20 C10 20.99 10 21.98 10 23 C2.47850553 23.36990956 2.47850553 23.36990956 0.39282227 21.75756836 C-1.36297132 19.54197536 -1.36194141 18.38628613 -1.328125 15.5859375 C-1.32039062 14.32136719 -1.32039062 14.32136719 -1.3125 13.03125 C-1.291875 12.1546875 -1.27125 11.278125 -1.25 10.375 C-1.24484375 9.49070312 -1.2396875 8.60640625 -1.234375 7.6953125 C-1.15411491 1.15411491 -1.15411491 1.15411491 0 0 Z " fill="#54B45A" transform="translate(1,8)"/>
<path d="M0 0 C2.32528287 2.32528287 2.29511025 2.84665898 2.3125 6 C2.32925781 6.70125 2.34601563 7.4025 2.36328125 8.125 C2.18345703 9.053125 2.18345703 9.053125 2 10 C-1.8503105 12.56687367 -3.58569763 11.83288724 -8 11 C-8 12.32 -8 13.64 -8 15 C-5.36 15 -2.72 15 0 15 C0 15.33 0 15.66 0 16 C-6.15234375 16.87890625 -6.15234375 16.87890625 -8 17 C-9.86916794 15.13083206 -9.21688008 12.12555426 -9.25 9.625 C-9.27578125 8.46226563 -9.3015625 7.29953125 -9.328125 6.1015625 C-9 3 -9 3 -7.67578125 1.10546875 C-5.09755037 -0.59532225 -3.00166039 -0.31932557 0 0 Z " fill="#E9FAEB" transform="translate(87,16)"/>
<path d="M0 0 C0.94552734 0.16242187 0.94552734 0.16242187 1.91015625 0.328125 C4.11929625 3.641835 4.13497178 4.6727271 4.03515625 8.515625 C4.01710937 9.41667969 3.9990625 10.31773438 3.98046875 11.24609375 C3.94566406 12.27669922 3.94566406 12.27669922 3.91015625 13.328125 C3.58015625 12.338125 3.25015625 11.348125 2.91015625 10.328125 C1.92015625 10.988125 0.93015625 11.648125 -0.08984375 12.328125 C-2.58984375 12.703125 -2.58984375 12.703125 -5.08984375 12.328125 C-6.96484375 10.765625 -6.96484375 10.765625 -8.08984375 8.328125 C-7.59118611 0.97292485 -7.28944072 0.2645895 0 0 Z " fill="#EBFBEC" transform="translate(162.08984375,15.671875)"/>
<path d="M0 0 C1.875 1.125 1.875 1.125 3 3 C3.4375 6 3.4375 6 3 9 C1.375 10.9375 1.375 10.9375 -1 12 C-4.125 11.875 -4.125 11.875 -7 11 C-9.15502531 7.76746204 -9.46856135 6.74849077 -9 3 C-6.73529086 -0.64869805 -4.03159541 -0.50394943 0 0 Z " fill="#F0FBF0" transform="translate(25,16)"/>
<path d="M0 0 C7.27272727 -0.48484848 7.27272727 -0.48484848 10.4375 1.625 C12 4 12 4 13 10 C7.39 10 1.78 10 -4 10 C-4.33 10.99 -4.66 11.98 -5 13 C-5.33 13 -5.66 13 -6 13 C-6.125 5.25 -6.125 5.25 -5 3 C-4.01 3 -3.02 3 -2 3 C-2.33 4.32 -2.66 5.64 -3 7 C0.63 7 4.26 7 8 7 C5.16569547 3.7457985 3.31392226 2.4793247 -1 2 C-0.67 1.34 -0.34 0.68 0 0 Z " fill="#4BAF52" transform="translate(103,13)"/>
<path d="M0 0 C3.5 0.25 3.5 0.25 5.5 2.25 C6.05416667 8.34583333 6.05416667 8.34583333 4.3125 11.1875 C1.83950907 12.63718434 0.32115488 12.67317323 -2.5 12.25 C-4.3125 11.1875 -4.3125 11.1875 -5.5 9.25 C-5.8125 5.6875 -5.8125 5.6875 -5.5 2.25 C-3.5 0.25 -3.5 0.25 0 0 Z " fill="#F3FCF5" transform="translate(61.5,15.75)"/>
<path d="M0 0 C1.65 0.33 3.3 0.66 5 1 C4.96519531 1.59167969 4.93039063 2.18335938 4.89453125 2.79296875 C4.72436825 7.7601076 4.83144791 10.90728689 8 15 C4.66666667 15 1.33333333 15 -2 15 C-1.34 14.01 -0.68 13.02 0 12 C-0.99 11.67 -1.98 11.34 -3 11 C-3.99 11.66 -4.98 12.32 -6 13 C-9.1875 12.625 -9.1875 12.625 -12 12 C-12.33 10.68 -12.66 9.36 -13 8 C-7.72 8 -2.44 8 3 8 C2.01 5.36 1.02 2.72 0 0 Z " fill="#E3FBE4" transform="translate(113,15)"/>
<path d="M0 0 C0.66 0 1.32 0 2 0 C2 0.66 2 1.32 2 2 C2.66 2.66 3.32 3.32 4 4 C3.67 4.33 3.34 4.66 3 5 C2.47546564 9.23926951 2.26310482 12.8209677 4.5625 16.5 C8.19740009 18.7368616 11.78990947 19 16 19 C16 19.66 16 20.32 16 21 C10.158256 21.35050464 6.1468192 21.16727335 1 18 C1 18.66 1 19.32 1 20 C-0.98 20 -2.96 20 -5 20 C-4.505 18.515 -4.505 18.515 -4 17 C-2.515 17.99 -2.515 17.99 -1 19 C-1.11458693 17.56163249 -1.24209116 16.12429034 -1.375 14.6875 C-1.44460937 13.88699219 -1.51421875 13.08648437 -1.5859375 12.26171875 C-1.89564426 9.72775559 -1.89564426 9.72775559 -4 7 C-2.68 4.69 -1.36 2.38 0 0 Z " fill="#E9FBE7" transform="translate(50,12)"/>
<path d="M0 0 C0.33 0.66 0.66 1.32 1 2 C-0.134375 2.309375 -1.26875 2.61875 -2.4375 2.9375 C-5.78775099 3.62924531 -5.78775099 3.62924531 -7 5 C-7.58414702 8.37306618 -7.58414702 8.37306618 -7 12 C-4.09587454 14.35322796 -4.09587454 14.35322796 -1 16 C-1 16.66 -1 17.32 -1 18 C-4.89503578 18.45291114 -6.57683856 18.28517401 -9.875 16.0625 C-12.37728329 12.4562682 -12.68948261 10.39107866 -12.41015625 6.09375 C-12 4 -12 4 -10.5 1.4375 C-6.85665449 -0.65742367 -4.16543193 -0.27769546 0 0 Z " fill="#57B05D" transform="translate(64,13)"/>
<path d="M0 0 C0.33 0 0.66 0 1 0 C1 8.25 1 16.5 1 25 C-0.65 25.33 -2.3 25.66 -4 26 C-4.33 25.34 -4.66 24.68 -5 24 C-4.34 23.01 -3.68 22.02 -3 21 C-2.38452181 14.74263838 -3.0901705 11.88728687 -7 7 C-3.125 7.875 -3.125 7.875 -2 9 C-1.34 6.03 -0.68 3.06 0 0 Z " fill="#E8FDE9" transform="translate(34,5)"/>
<path d="M0 0 C1.32 0 2.64 0 4 0 C4 6.27 4 12.54 4 19 C2.68 18.67 1.36 18.34 0 18 C0 12.06 0 6.12 0 0 Z " fill="#5BB561" transform="translate(142,12)"/>
<path d="M0 0 C1.50433594 0.01353516 1.50433594 0.01353516 3.0390625 0.02734375 C3.80992188 0.03894531 4.58078125 0.05054688 5.375 0.0625 C5.375 0.7225 5.375 1.3825 5.375 2.0625 C4.36179687 2.02769531 4.36179687 2.02769531 3.328125 1.9921875 C2.43609375 1.97414063 1.5440625 1.95609375 0.625 1.9375 C-0.25671875 1.91429687 -1.1384375 1.89109375 -2.046875 1.8671875 C-4.84332115 2.07903948 -6.38294419 2.36951909 -8.625 4.0625 C-9.36565039 6.37361471 -9.36565039 6.37361471 -9.4375 9 C-9.50582031 9.87527344 -9.57414062 10.75054687 -9.64453125 11.65234375 C-9.74775966 14.2084373 -9.74775966 14.2084373 -8.625 17.0625 C-11.11564888 17.74957555 -13.00386292 18.0625 -15.625 18.0625 C-14.8515625 17.0415625 -14.8515625 17.0415625 -14.0625 16 C-11.82298424 11.42359823 -13.06681344 7.73705967 -14.625 3.0625 C-12.315 3.0625 -10.005 3.0625 -7.625 3.0625 C-7.625 2.4025 -7.625 1.7425 -7.625 1.0625 C-4.98041621 -0.25979189 -2.94738699 -0.03427194 0 0 Z " fill="#E3FBE3" transform="translate(105.625,10.9375)"/>
<path d="M0 0 C0.66 0.33 1.32 0.66 2 1 C1.67 1.99 1.34 2.98 1 4 C1.66 4 2.32 4 3 4 C3.02505615 4.59538574 3.0501123 5.19077148 3.07592773 5.80419922 C3.19177494 8.49469136 3.31455196 11.1848234 3.4375 13.875 C3.47681641 14.81214844 3.51613281 15.74929687 3.55664062 16.71484375 C3.59853516 17.61074219 3.64042969 18.50664063 3.68359375 19.4296875 C3.72025146 20.25710449 3.75690918 21.08452148 3.79467773 21.93701172 C3.88238327 24.06179429 3.88238327 24.06179429 5 26 C4.01 26 3.02 26 2 26 C1.67 22.37 1.34 18.74 1 15 C0.34 15.66 -0.32 16.32 -1 17 C-1.99 16.67 -2.98 16.34 -4 16 C-3.525625 15.67 -3.05125 15.34 -2.5625 15 C-0.19773342 11.97309878 0.03046173 8.78487052 0 5 C-0.78785353 2.5762741 -0.78785353 2.5762741 -2 1 C-1.34 0.67 -0.68 0.34 0 0 Z " fill="#E4FCE4" transform="translate(71,14)"/>
<path d="M0 0 C2.0625 0.40625 2.0625 0.40625 4.125 2.40625 C4.434375 3.06625 4.74375 3.72625 5.0625 4.40625 C4.4025 4.40625 3.7425 4.40625 3.0625 4.40625 C2.7325 5.39625 2.4025 6.38625 2.0625 7.40625 C2.0625 6.74625 2.0625 6.08625 2.0625 5.40625 C-0.9075 5.40625 -3.8775 5.40625 -6.9375 5.40625 C-6.9375 4.74625 -6.9375 4.08625 -6.9375 3.40625 C-8.2575 3.73625 -9.5775 4.06625 -10.9375 4.40625 C-7.83246035 0.08619483 -5.0122834 -0.19785329 0 0 Z " fill="#5EB463" transform="translate(24.9375,11.59375)"/>
<path d="M0 0 C0.66 0.33 1.32 0.66 2 1 C1.88618103 3.93832645 1.75943449 6.8751065 1.625 9.8125 C1.57859375 11.06256836 1.57859375 11.06256836 1.53125 12.33789062 C1.47324219 13.54155273 1.47324219 13.54155273 1.4140625 14.76953125 C1.3826416 15.50792236 1.3512207 16.24631348 1.31884766 17.00708008 C1 19 1 19 -1 22 C-1.0272415 20.58344207 -1.04650467 19.16672955 -1.0625 17.75 C-1.07410156 16.96109375 -1.08570313 16.1721875 -1.09765625 15.359375 C-1.00385306 13.09308998 -0.63241063 11.1711105 0 9 C-1.41623216 8.94552953 -2.83308191 8.90699492 -4.25 8.875 C-5.43335937 8.84019531 -5.43335937 8.84019531 -6.640625 8.8046875 C-9.20731941 9.0171622 -10.7916067 9.71345895 -13 11 C-13 10.01 -13 9.02 -13 8 C-7.555 7.01 -7.555 7.01 -2 6 C-1.67 4.68 -1.34 3.36 -1 2 C-0.67 1.34 -0.34 0.68 0 0 Z " fill="#DBFCDB" transform="translate(132,4)"/>
<path d="M0 0 C0 5.94 0 11.88 0 18 C-0.99 17.67 -1.98 17.34 -3 17 C-3 11.72 -3 6.44 -3 1 C-1 0 -1 0 0 0 Z " fill="#4DAC56" transform="translate(136,5)"/>
<path d="M0 0 C1.66611905 -0.042721 3.33382885 -0.04063832 5 0 C6 1 6 1 6.0625 4.5625 C6.041875 5.696875 6.02125 6.83125 6 8 C3.36 8.33 0.72 8.66 -2 9 C-1.34 8.67 -0.68 8.34 0 8 C0 5.36 0 2.72 0 0 Z " fill="#F1FDEE" transform="translate(39,23)"/>
<path d="M0 0 C0.66 0.66 1.32 1.32 2 2 C5.08347826 2.16681109 5.08347826 2.16681109 8 2 C8.33 3.32 8.66 4.64 9 6 C5.28400809 6.20086443 4.22791555 6.1519437 1 4 C1 9.28 1 14.56 1 20 C0.67 20 0.34 20 0 20 C0 13.4 0 6.8 0 0 Z " fill="#B6E0B7" transform="translate(137,4)"/>
<path d="M0 0 C0.99 0.33 1.98 0.66 3 1 C2.52433594 1.98033203 2.52433594 1.98033203 2.0390625 2.98046875 C0.7271334 6.79295445 0.54673638 10.30889571 0.375 14.3125 C0.33632812 15.05306641 0.29765625 15.79363281 0.2578125 16.55664062 C0.16418295 18.37071309 0.08103149 20.18532116 0 22 C-2 20 -2 20 -2.1953125 16.3046875 C-2.182009 14.82799892 -2.15814835 13.35137642 -2.125 11.875 C-2.11146484 10.74384766 -2.11146484 10.74384766 -2.09765625 9.58984375 C-2.0740687 7.72642746 -2.03819719 5.86317407 -2 4 C-1.34 4 -0.68 4 0 4 C0 2.68 0 1.36 0 0 Z " fill="#49B14C" transform="translate(77,16)"/>
<path d="M0 0 C0.33 0 0.66 0 1 0 C1.13277344 0.68707031 1.26554688 1.37414062 1.40234375 2.08203125 C1.57894531 2.98308594 1.75554687 3.88414063 1.9375 4.8125 C2.11152344 5.70582031 2.28554687 6.59914063 2.46484375 7.51953125 C2.97741153 10.11397171 2.97741153 10.11397171 4 13 C2.35 12.67 0.7 12.34 -1 12 C-1.33 12.99 -1.66 13.98 -2 15 C-3.65 15 -5.3 15 -7 15 C-6.67 14.34 -6.34 13.68 -6 13 C-5.01 13.33 -4.02 13.66 -3 14 C-3 9.71 -3 5.42 -3 1 C-2.67 1 -2.34 1 -2 1 C-1.67 3.64 -1.34 6.28 -1 9 C-0.67 6.03 -0.34 3.06 0 0 Z " fill="#E9FCEB" transform="translate(149,17)"/>
<path d="M0 0 C0.99 0 1.98 0 3 0 C2.67 1.32 2.34 2.64 2 4 C4.31 4.33 6.62 4.66 9 5 C9 5.33 9 5.66 9 6 C7.906875 6.103125 6.81375 6.20625 5.6875 6.3125 C2.14440371 6.97307727 1.06756277 7.2027092 -1 10 C-1.125 2.25 -1.125 2.25 0 0 Z " fill="#45B14D" transform="translate(98,16)"/>
<path d="M0 0 C2.31 0 4.62 0 7 0 C7.66 1.32 8.32 2.64 9 4 C5.37 4 1.74 4 -2 4 C-1.34 2.68 -0.68 1.36 0 0 Z " fill="#CBEFCD" transform="translate(102,16)"/>
<path d="M0 0 C0.66 0 1.32 0 2 0 C2 0.66 2 1.32 2 2 C2.66 2.66 3.32 3.32 4 4 C2.02 6.97 2.02 6.97 0 10 C-1.32 9.34 -2.64 8.68 -4 8 C-2.68 5.36 -1.36 2.72 0 0 Z " fill="#E9FBE8" transform="translate(50,12)"/>
<path d="M0 0 C0.33 0.66 0.66 1.32 1 2 C0.67 2.99 0.34 3.98 0 5 C1.65 4.67 3.3 4.34 5 4 C5 4.99 5 5.98 5 7 C4.01 7 3.02 7 2 7 C2 7.66 2 8.32 2 9 C3.65 9.33 5.3 9.66 7 10 C7 10.33 7 10.66 7 11 C4.29686424 11.21917317 2.56041618 11.32851983 0.1875 9.9375 C-1.62623389 6.97824997 -1.25068132 4.38419775 -1 1 C-0.67 0.67 -0.34 0.34 0 0 Z " fill="#E7FCE8" transform="translate(57,17)"/>
<path d="M0 0 C1.32 0 2.64 0 4 0 C2.8905928 3.48670834 1.73662334 6.77484237 0 10 C-0.12375 9.360625 -0.2475 8.72125 -0.375 8.0625 C-0.684375 7.0415625 -0.684375 7.0415625 -1 6 C-1.66 5.67 -2.32 5.34 -3 5 C-1.75 2.5 -1.75 2.5 0 0 Z " fill="#5BB362" transform="translate(46,12)"/>
<path d="M0 0 C0.66 0.33 1.32 0.66 2 1 C2 3.97 2 6.94 2 10 C0.68 9.34 -0.64 8.68 -2 8 C-2.75 4.875 -2.75 4.875 -3 2 C-2.01 2 -1.02 2 0 2 C0 1.34 0 0.68 0 0 Z " fill="#60B365" transform="translate(47,21)"/>
<path d="M0 0 C6.625 -0.25 6.625 -0.25 10 2 C10 2.66 10 3.32 10 4 C6.7 3.67 3.4 3.34 0 3 C0 2.01 0 1.02 0 0 Z " fill="#4FAE54" transform="translate(80,12)"/>
<path d="M0 0 C2.64 0.66 5.28 1.32 8 2 C8 2.66 8 3.32 8 4 C6.35 4 4.7 4 3 4 C3 4.99 3 5.98 3 7 C2.01 7.33 1.02 7.66 0 8 C0 5.36 0 2.72 0 0 Z " fill="#EFFAF1" transform="translate(138,8)"/>
<path d="M0 0 C1.32 0.66 2.64 1.32 4 2 C1.9375 4.5 1.9375 4.5 -1 7 C-4.8125 7.3125 -4.8125 7.3125 -8 7 C-8 6.67 -8 6.34 -8 6 C-6.02 6 -4.04 6 -2 6 C-2.33 4.68 -2.66 3.36 -3 2 C-2.01 1.34 -1.02 0.68 0 0 Z " fill="#65B768" transform="translate(110,25)"/>
<path d="M0 0 C1.32 1.65 2.64 3.3 4 5 C2.68 5.33 1.36 5.66 0 6 C0 6.66 0 7.32 0 8 C-2.64 8 -5.28 8 -8 8 C-8 7.67 -8 7.34 -8 7 C-5.69 7 -3.38 7 -1 7 C-1 6.01 -1 5.02 -1 4 C-2.98 4 -4.96 4 -7 4 C-7 3.67 -7 3.34 -7 3 C-4.69 3 -2.38 3 0 3 C0 2.01 0 1.02 0 0 Z " fill="#CBF1CB" transform="translate(12,24)"/>
<path d="M0 0 C0.99 0 1.98 0 3 0 C3.125 7.75 3.125 7.75 2 10 C1.34 10 0.68 10 0 10 C0 6.7 0 3.4 0 0 Z " fill="#4DAE53" transform="translate(28,16)"/>
<path d="M0 0 C3.3 0 6.6 0 10 0 C9.67 0.99 9.34 1.98 9 3 C2.25 3.125 2.25 3.125 0 2 C0 1.34 0 0.68 0 0 Z " fill="#4CAF51" transform="translate(99,28)"/>
<path d="M0 0 C1.52519276 0.08937803 3.04681929 0.24537146 4.5625 0.4375 C5.80193359 0.59025391 5.80193359 0.59025391 7.06640625 0.74609375 C7.70449219 0.82988281 8.34257812 0.91367188 9 1 C9 1.33 9 1.66 9 2 C6.36 2 3.72 2 1 2 C1 2.99 1 3.98 1 5 C0.01 5 -0.98 5 -2 5 C-1.125 1.125 -1.125 1.125 0 0 Z " fill="#4BB052" transform="translate(121,13)"/>
<path d="M0 0 C0.33 0.66 0.66 1.32 1 2 C0.67 2.66 0.34 3.32 0 4 C0.66 4.33 1.32 4.66 2 5 C-1.13498292 6.85776765 -3.37471432 7.20140476 -7 7 C-5.68 6.67 -4.36 6.34 -3 6 C-3 5.34 -3 4.68 -3 4 C-3.66 3.67 -4.32 3.34 -5 3 C-3.35 2.01 -1.7 1.02 0 0 Z " fill="#67B96D" transform="translate(66,25)"/>
<path d="M0 0 C-0.33 1.65 -0.66 3.3 -1 5 C-3.31 5.33 -5.62 5.66 -8 6 C-6.68 5.67 -5.36 5.34 -4 5 C-4 4.34 -4 3.68 -4 3 C-4.99 2.67 -5.98 2.34 -7 2 C-2.25 0 -2.25 0 0 0 Z " fill="#6AB66C" transform="translate(165,26)"/>
<path d="M0 0 C2 3 2 3 2 6 C-3.28 6 -8.56 6 -14 6 C-14 5.67 -14 5.34 -14 5 C-7.565 4.505 -7.565 4.505 -1 4 C-0.67 2.68 -0.34 1.36 0 0 Z " fill="#66AD66" transform="translate(114,17)"/>
<path d="M0 0 C2.97 0.33 5.94 0.66 9 1 C8.67 1.99 8.34 2.98 8 4 C6.02 4 4.04 4 2 4 C2 3.34 2 2.68 2 2 C1.34 2 0.68 2 0 2 C0 1.34 0 0.68 0 0 Z " fill="#50AF58" transform="translate(19,27)"/>
<path d="M0 0 C1.4540625 0.0309375 1.4540625 0.0309375 2.9375 0.0625 C2.9375 1.0525 2.9375 2.0425 2.9375 3.0625 C0.9575 3.3925 -1.0225 3.7225 -3.0625 4.0625 C-3.3925 3.0725 -3.7225 2.0825 -4.0625 1.0625 C-3.0625 0.0625 -3.0625 0.0625 0 0 Z " fill="#F0FDF1" transform="translate(106.0625,23.9375)"/>
<path d="M0 0 C1.45792884 -0.05399736 2.91642712 -0.09279177 4.375 -0.125 C5.18710938 -0.14820313 5.99921875 -0.17140625 6.8359375 -0.1953125 C9 0 9 0 11 2 C9.68 2 8.36 2 7 2 C7 2.66 7 3.32 7 4 C5.68 3.67 4.36 3.34 3 3 C3.33 2.67 3.66 2.34 4 2 C2.35 2 0.7 2 -1 2 C-0.67 1.34 -0.34 0.68 0 0 Z " fill="#65B76D" transform="translate(155,12)"/>
<path d="M0 0 C2.64 0 5.28 0 8 0 C8.33 0.66 8.66 1.32 9 2 C6.36 2.66 3.72 3.32 1 4 C0.67 2.68 0.34 1.36 0 0 Z " fill="#4AB050" transform="translate(56,13)"/>
<path d="M0 0 C0.99 0 1.98 0 3 0 C3 2.31 3 4.62 3 7 C2.01 7 1.02 7 0 7 C0 4.69 0 2.38 0 0 Z " fill="#55AB5E" transform="translate(36,24)"/>
<path d="M0 0 C0.66 0 1.32 0 2 0 C2.22174933 1.45635371 2.42698698 2.91522956 2.625 4.375 C2.74101563 5.18710937 2.85703125 5.99921875 2.9765625 6.8359375 C2.98429687 7.55007812 2.99203125 8.26421875 3 9 C2.34 9.66 1.68 10.32 1 11 C0.67 7.37 0.34 3.74 0 0 Z " fill="#48B24E" transform="translate(53,18)"/>
<path d="M0 0 C0.99 0.33 1.98 0.66 3 1 C2.67 3.31 2.34 5.62 2 8 C1.34 8 0.68 8 0 8 C0 5.36 0 2.72 0 0 Z " fill="#47AF4E" transform="translate(90,18)"/>
<path d="M0 0 C2.97 0 5.94 0 9 0 C8.67 0.99 8.34 1.98 8 3 C5.6568787 2.74438677 3.32156597 2.40729228 1 2 C0.67 1.34 0.34 0.68 0 0 Z " fill="#48AC51" transform="translate(122,28)"/>
<path d="M0 0 C1.32 0 2.64 0 4 0 C4.33 0.99 4.66 1.98 5 3 C4.34 3 3.68 3 3 3 C2.34 4.32 1.68 5.64 1 7 C0.34 6.67 -0.32 6.34 -1 6 C-0.34 5.01 0.32 4.02 1 3 C0.67 2.01 0.34 1.02 0 0 Z " fill="#EFFDEF" transform="translate(112,24)"/>
<path d="M0 0 C0.33 0 0.66 0 1 0 C1.24042276 4.08718695 0.42258812 7.17679443 -1 11 C-1.33 11 -1.66 11 -2 11 C-2.05399736 9.54207116 -2.09279177 8.08357288 -2.125 6.625 C-2.15980469 5.40683594 -2.15980469 5.40683594 -2.1953125 4.1640625 C-2 2 -2 2 0 0 Z " fill="#C5EFC9" transform="translate(51,20)"/>
<path d="M0 0 C0.66 0 1.32 0 2 0 C3.39431504 2.78863007 3.25660094 4.92078868 3 8 C2.01 8.66 1.02 9.32 0 10 C0.57584432 7.61435923 1.22227595 5.33317216 2 3 C1.34 3 0.68 3 0 3 C0 2.01 0 1.02 0 0 Z " fill="#DCFCE0" transform="translate(25,17)"/>
<path d="M0 0 C2.475 0.495 2.475 0.495 5 1 C4.67 3.31 4.34 5.62 4 8 C2.22293791 5.33440687 1.12451727 2.9719385 0 0 Z " fill="#DCFBDD" transform="translate(113,15)"/>
<path d="M0 0 C1.66611905 -0.042721 3.33382885 -0.04063832 5 0 C6 1 6 1 6.0625 3.5625 C6.041875 4.366875 6.02125 5.17125 6 6 C5.34 4.68 4.68 3.36 4 2 C2.68 2 1.36 2 0 2 C0 1.34 0 0.68 0 0 Z " fill="#48B04F" transform="translate(162,14)"/>
</svg>
